<mxfile host="ac.draw.io" modified="2024-06-13T06:53:15.363Z" agent="Mozilla/5.0 (Macintosh; Intel Mac OS X 10_15_7) AppleWebKit/537.36 (KHTML, like Gecko) Chrome/124.0.0.0 Safari/537.36 Edg/124.0.0.0" etag="3INdxpINm5g0DwZaBKCl" version="24.5.4" type="embed">
  <diagram id="9HVGjTfUsUy2gqGVubQJ" name="Page-1">
    <mxGraphModel dx="-1656" dy="-1080" grid="1" gridSize="1" guides="1" tooltips="1" connect="1" arrows="1" fold="1" page="1" pageScale="1" pageWidth="827" pageHeight="1169" math="0" shadow="0">
      <root>
        <mxCell id="0" />
        <mxCell id="1" parent="0" />
        <mxCell id="qGXmZ7wfK9wXLIBla1jH-1" value="" style="rounded=1;whiteSpace=wrap;html=1;dashed=1;align=center;verticalAlign=middle;arcSize=2;" parent="1" vertex="1">
          <mxGeometry x="5397" y="2609" width="874" height="875" as="geometry" />
        </mxCell>
        <mxCell id="qGXmZ7wfK9wXLIBla1jH-2" value="512b/40b AXI Subordinate" style="rounded=0;whiteSpace=wrap;html=1;horizontal=0;fillColor=#f5f5f5;strokeColor=#666666;rotation=90;fontColor=#333333;" parent="1" vertex="1">
          <mxGeometry x="5750" y="2525.01" width="30" height="167.53" as="geometry" />
        </mxCell>
        <mxCell id="qGXmZ7wfK9wXLIBla1jH-4" value="1 MiB&lt;br&gt;Contiguous SRAM" style="rounded=0;whiteSpace=wrap;html=1;horizontal=0;fillColor=#f5f5f5;strokeColor=#666666;rotation=90;fontColor=#333333;" parent="1" vertex="1">
          <mxGeometry x="5390" y="3134.5" width="365.28" height="175" as="geometry" />
        </mxCell>
        <mxCell id="qGXmZ7wfK9wXLIBla1jH-7" value="Memory Repair" style="rounded=0;whiteSpace=wrap;html=1;horizontal=0;fillColor=#f5f5f5;strokeColor=#666666;rotation=90;fontColor=#333333;" parent="1" vertex="1">
          <mxGeometry x="5561.5" y="3305.71" width="28.7" height="139.37" as="geometry" />
        </mxCell>
        <mxCell id="qGXmZ7wfK9wXLIBla1jH-10" value="rst_n" style="text;html=1;align=center;verticalAlign=middle;resizable=0;points=[];autosize=1;strokeColor=none;fillColor=none;fontColor=#000000;" parent="1" vertex="1">
          <mxGeometry x="5270" y="2795.24" width="40" height="20" as="geometry" />
        </mxCell>
        <mxCell id="qGXmZ7wfK9wXLIBla1jH-11" value="clk" style="text;html=1;align=center;verticalAlign=middle;resizable=0;points=[];autosize=1;strokeColor=none;fillColor=none;fontColor=#000000;" parent="1" vertex="1">
          <mxGeometry x="5275" y="2710" width="30" height="20" as="geometry" />
        </mxCell>
        <mxCell id="qGXmZ7wfK9wXLIBla1jH-17" value="SMS" style="rounded=0;whiteSpace=wrap;html=1;horizontal=0;fillColor=#f5f5f5;strokeColor=#666666;rotation=90;fontColor=#333333;" parent="1" vertex="1">
          <mxGeometry x="5530" y="2578.77" width="30" height="60" as="geometry" />
        </mxCell>
        <mxCell id="qGXmZ7wfK9wXLIBla1jH-18" value="ATPG" style="rounded=0;whiteSpace=wrap;html=1;horizontal=0;fillColor=#f5f5f5;strokeColor=#666666;rotation=90;fontColor=#333333;" parent="1" vertex="1">
          <mxGeometry x="5430" y="2578.77" width="30" height="60" as="geometry" />
        </mxCell>
        <mxCell id="qGXmZ7wfK9wXLIBla1jH-19" value="" style="endArrow=classic;html=1;rounded=0;fontColor=#000000;startArrow=classic;startFill=1;exitX=0;exitY=0.5;exitDx=0;exitDy=0;" parent="1" source="qGXmZ7wfK9wXLIBla1jH-18" edge="1">
          <mxGeometry width="50" height="50" relative="1" as="geometry">
            <mxPoint x="5440" y="2590" as="sourcePoint" />
            <mxPoint x="5445" y="2550" as="targetPoint" />
          </mxGeometry>
        </mxCell>
        <mxCell id="qGXmZ7wfK9wXLIBla1jH-40" value="" style="endArrow=classic;html=1;rounded=0;fontColor=#000000;startArrow=classic;startFill=1;exitX=0;exitY=0.5;exitDx=0;exitDy=0;" parent="1" edge="1">
          <mxGeometry width="50" height="50" relative="1" as="geometry">
            <mxPoint x="5544.88" y="2594" as="sourcePoint" />
            <mxPoint x="5544.88" y="2550" as="targetPoint" />
          </mxGeometry>
        </mxCell>
        <mxCell id="qGXmZ7wfK9wXLIBla1jH-42" value="clk_div" style="whiteSpace=wrap;html=1;rotation=-90;" parent="1" vertex="1">
          <mxGeometry x="5364" y="2702.53" width="70" height="32.47" as="geometry" />
        </mxCell>
        <mxCell id="qGXmZ7wfK9wXLIBla1jH-43" value="" style="endArrow=classic;html=1;rounded=0;fontColor=#000000;entryX=0.5;entryY=0;entryDx=0;entryDy=0;" parent="1" target="qGXmZ7wfK9wXLIBla1jH-42" edge="1">
          <mxGeometry width="50" height="50" relative="1" as="geometry">
            <mxPoint x="5313" y="2719" as="sourcePoint" />
            <mxPoint x="5144" y="2794" as="targetPoint" />
          </mxGeometry>
        </mxCell>
        <mxCell id="qGXmZ7wfK9wXLIBla1jH-44" value="" style="endArrow=classic;html=1;rounded=0;fontColor=#000000;startArrow=classic;startFill=1;exitX=0;exitY=0.5;exitDx=0;exitDy=0;" parent="1" edge="1">
          <mxGeometry width="50" height="50" relative="1" as="geometry">
            <mxPoint x="5757.54" y="2595.01" as="sourcePoint" />
            <mxPoint x="5757.54" y="2551.01" as="targetPoint" />
          </mxGeometry>
        </mxCell>
        <mxCell id="qGXmZ7wfK9wXLIBla1jH-74" value="axi4" style="edgeLabel;html=1;align=center;verticalAlign=middle;resizable=0;points=[];" parent="qGXmZ7wfK9wXLIBla1jH-44" vertex="1" connectable="0">
          <mxGeometry x="-0.0488" relative="1" as="geometry">
            <mxPoint as="offset" />
          </mxGeometry>
        </mxCell>
        <mxCell id="qGXmZ7wfK9wXLIBla1jH-48" value="&lt;font face=&quot;Courier New&quot;&gt;&lt;b&gt;bank 0&lt;/b&gt;&lt;/font&gt;" style="text;html=1;strokeColor=none;fillColor=none;align=center;verticalAlign=middle;whiteSpace=wrap;rounded=0;" parent="1" vertex="1">
          <mxGeometry x="5535.5" y="3431" width="60" height="30" as="geometry" />
        </mxCell>
        <mxCell id="qGXmZ7wfK9wXLIBla1jH-49" value="&lt;font face=&quot;Courier New&quot;&gt;&lt;b&gt;bank1&lt;/b&gt;&lt;/font&gt;" style="text;html=1;strokeColor=none;fillColor=none;align=center;verticalAlign=middle;whiteSpace=wrap;rounded=0;" parent="1" vertex="1">
          <mxGeometry x="5764" y="3438" width="60" height="30" as="geometry" />
        </mxCell>
        <mxCell id="qGXmZ7wfK9wXLIBla1jH-52" value="1 MiB&lt;br&gt;Contiguous SRAM" style="rounded=0;whiteSpace=wrap;html=1;horizontal=0;fillColor=#f5f5f5;strokeColor=#666666;rotation=90;fontColor=#333333;" parent="1" vertex="1">
          <mxGeometry x="5616" y="3133" width="365.28" height="175" as="geometry" />
        </mxCell>
        <mxCell id="qGXmZ7wfK9wXLIBla1jH-53" value="MBIST" style="rounded=0;whiteSpace=wrap;html=1;horizontal=0;fillColor=#f5f5f5;strokeColor=#666666;rotation=90;fontColor=#333333;" parent="1" vertex="1">
          <mxGeometry x="5790" y="3277" width="28.7" height="139.41" as="geometry" />
        </mxCell>
        <mxCell id="qGXmZ7wfK9wXLIBla1jH-54" value="Memory Repair" style="rounded=0;whiteSpace=wrap;html=1;horizontal=0;fillColor=#f5f5f5;strokeColor=#666666;rotation=90;fontColor=#333333;" parent="1" vertex="1">
          <mxGeometry x="5790" y="3305.71" width="28.7" height="139.37" as="geometry" />
        </mxCell>
        <mxCell id="qGXmZ7wfK9wXLIBla1jH-55" value="AXI2REG" style="whiteSpace=wrap;html=1;" parent="1" vertex="1">
          <mxGeometry x="5684" y="2667" width="165" height="50" as="geometry" />
        </mxCell>
        <mxCell id="qGXmZ7wfK9wXLIBla1jH-57" value="" style="endArrow=classic;html=1;rounded=0;fontColor=#000000;startArrow=classic;startFill=1;exitX=0;exitY=0.5;exitDx=0;exitDy=0;" parent="1" edge="1">
          <mxGeometry width="50" height="50" relative="1" as="geometry">
            <mxPoint x="5756.54" y="2667" as="sourcePoint" />
            <mxPoint x="5756.54" y="2623" as="targetPoint" />
          </mxGeometry>
        </mxCell>
        <mxCell id="qGXmZ7wfK9wXLIBla1jH-75" value="axi4" style="edgeLabel;html=1;align=center;verticalAlign=middle;resizable=0;points=[];" parent="qGXmZ7wfK9wXLIBla1jH-57" vertex="1" connectable="0">
          <mxGeometry x="-0.0341" y="-1" relative="1" as="geometry">
            <mxPoint as="offset" />
          </mxGeometry>
        </mxCell>
        <mxCell id="qGXmZ7wfK9wXLIBla1jH-59" value="" style="endArrow=classic;html=1;rounded=0;fontColor=#000000;startArrow=classic;startFill=1;exitX=0;exitY=0.5;exitDx=0;exitDy=0;" parent="1" edge="1">
          <mxGeometry width="50" height="50" relative="1" as="geometry">
            <mxPoint x="6073" y="3043" as="sourcePoint" />
            <mxPoint x="6073" y="2999" as="targetPoint" />
          </mxGeometry>
        </mxCell>
        <mxCell id="qGXmZ7wfK9wXLIBla1jH-80" value="mem req/rsp" style="edgeLabel;html=1;align=center;verticalAlign=middle;resizable=0;points=[];" parent="qGXmZ7wfK9wXLIBla1jH-59" vertex="1" connectable="0">
          <mxGeometry x="0.0038" relative="1" as="geometry">
            <mxPoint as="offset" />
          </mxGeometry>
        </mxCell>
        <mxCell id="qGXmZ7wfK9wXLIBla1jH-67" value="" style="endArrow=classic;html=1;rounded=0;endFill=1;" parent="1" edge="1">
          <mxGeometry width="50" height="50" relative="1" as="geometry">
            <mxPoint x="5728" y="2851" as="sourcePoint" />
            <mxPoint x="6081" y="2954" as="targetPoint" />
            <Array as="points">
              <mxPoint x="6081" y="2852" />
            </Array>
          </mxGeometry>
        </mxCell>
        <mxCell id="qGXmZ7wfK9wXLIBla1jH-69" value="" style="endArrow=classic;html=1;rounded=0;exitX=0.25;exitY=1;exitDx=0;exitDy=0;endFill=1;entryX=0.25;entryY=0;entryDx=0;entryDy=0;startArrow=classic;startFill=1;" parent="1" target="qGXmZ7wfK9wXLIBla1jH-60" edge="1">
          <mxGeometry width="50" height="50" relative="1" as="geometry">
            <mxPoint x="5730" y="2718" as="sourcePoint" />
            <mxPoint x="5575" y="2983" as="targetPoint" />
            <Array as="points">
              <mxPoint x="5730" y="2851" />
              <mxPoint x="5555" y="2850" />
            </Array>
          </mxGeometry>
        </mxCell>
        <mxCell id="qGXmZ7wfK9wXLIBla1jH-76" value="wr_mem req/rsp" style="edgeLabel;html=1;align=center;verticalAlign=middle;resizable=0;points=[];" parent="qGXmZ7wfK9wXLIBla1jH-69" vertex="1" connectable="0">
          <mxGeometry x="-0.5851" relative="1" as="geometry">
            <mxPoint x="-4" y="4" as="offset" />
          </mxGeometry>
        </mxCell>
        <mxCell id="qGXmZ7wfK9wXLIBla1jH-70" value="" style="endArrow=classic;html=1;rounded=0;exitX=0.25;exitY=1;exitDx=0;exitDy=0;endFill=1;entryX=0.75;entryY=0;entryDx=0;entryDy=0;startArrow=classic;startFill=1;" parent="1" target="qGXmZ7wfK9wXLIBla1jH-60" edge="1">
          <mxGeometry width="50" height="50" relative="1" as="geometry">
            <mxPoint x="5813" y="2717" as="sourcePoint" />
            <mxPoint x="5658" y="2982" as="targetPoint" />
            <Array as="points">
              <mxPoint x="5814" y="2891" />
              <mxPoint x="5598" y="2891" />
            </Array>
          </mxGeometry>
        </mxCell>
        <mxCell id="qGXmZ7wfK9wXLIBla1jH-77" value="rd mem req/rsp" style="edgeLabel;html=1;align=center;verticalAlign=middle;resizable=0;points=[];" parent="qGXmZ7wfK9wXLIBla1jH-70" vertex="1" connectable="0">
          <mxGeometry x="-0.6024" y="1" relative="1" as="geometry">
            <mxPoint as="offset" />
          </mxGeometry>
        </mxCell>
        <mxCell id="qGXmZ7wfK9wXLIBla1jH-71" value="" style="endArrow=classic;html=1;rounded=0;endFill=1;" parent="1" edge="1">
          <mxGeometry width="50" height="50" relative="1" as="geometry">
            <mxPoint x="5812" y="2891" as="sourcePoint" />
            <mxPoint x="6049" y="2954" as="targetPoint" />
            <Array as="points">
              <mxPoint x="6049" y="2889" />
            </Array>
          </mxGeometry>
        </mxCell>
        <mxCell id="jSoi9XGv0BYkDWe7rzDO-1" value="APB subordinate" style="rounded=0;whiteSpace=wrap;html=1;horizontal=0;fillColor=#f5f5f5;strokeColor=#666666;rotation=90;fontColor=#333333;" parent="1" vertex="1">
          <mxGeometry x="6018" y="2555.39" width="27" height="99.77" as="geometry" />
        </mxCell>
        <mxCell id="jSoi9XGv0BYkDWe7rzDO-2" value="" style="endArrow=classic;html=1;rounded=0;fontColor=#000000;startArrow=classic;startFill=1;exitX=0;exitY=0.5;exitDx=0;exitDy=0;" parent="1" edge="1">
          <mxGeometry width="50" height="50" relative="1" as="geometry">
            <mxPoint x="6031.3" y="2593" as="sourcePoint" />
            <mxPoint x="6031.3" y="2549" as="targetPoint" />
          </mxGeometry>
        </mxCell>
        <mxCell id="jSoi9XGv0BYkDWe7rzDO-3" value="apb3/4" style="edgeLabel;html=1;align=center;verticalAlign=middle;resizable=0;points=[];" parent="jSoi9XGv0BYkDWe7rzDO-2" connectable="0" vertex="1">
          <mxGeometry x="0.0227" y="-2" relative="1" as="geometry">
            <mxPoint as="offset" />
          </mxGeometry>
        </mxCell>
        <mxCell id="aFVHuyK8Ec4p_bwPnjk1-1" value="rst_syn&amp;nbsp;" style="whiteSpace=wrap;html=1;rotation=-90;" parent="1" vertex="1">
          <mxGeometry x="5364" y="2789" width="70" height="32.47" as="geometry" />
        </mxCell>
        <mxCell id="aFVHuyK8Ec4p_bwPnjk1-2" value="" style="endArrow=classic;html=1;rounded=0;fontColor=#000000;entryX=0.5;entryY=0;entryDx=0;entryDy=0;" parent="1" target="aFVHuyK8Ec4p_bwPnjk1-1" edge="1">
          <mxGeometry width="50" height="50" relative="1" as="geometry">
            <mxPoint x="5313" y="2805.47" as="sourcePoint" />
            <mxPoint x="5144" y="2880.47" as="targetPoint" />
          </mxGeometry>
        </mxCell>
        <mxCell id="aFVHuyK8Ec4p_bwPnjk1-5" value="CSR" style="whiteSpace=wrap;html=1;" parent="1" vertex="1">
          <mxGeometry x="5959" y="2678" width="145" height="66" as="geometry" />
        </mxCell>
        <mxCell id="aFVHuyK8Ec4p_bwPnjk1-7" value="" style="endArrow=classic;html=1;rounded=0;fontColor=#000000;startArrow=classic;startFill=1;exitX=0.5;exitY=0;exitDx=0;exitDy=0;entryX=1;entryY=0.5;entryDx=0;entryDy=0;" parent="1" source="aFVHuyK8Ec4p_bwPnjk1-5" target="jSoi9XGv0BYkDWe7rzDO-1" edge="1">
          <mxGeometry width="50" height="50" relative="1" as="geometry">
            <mxPoint x="5998" y="2663" as="sourcePoint" />
            <mxPoint x="5998" y="2619" as="targetPoint" />
          </mxGeometry>
        </mxCell>
        <mxCell id="aFVHuyK8Ec4p_bwPnjk1-11" style="edgeStyle=orthogonalEdgeStyle;rounded=0;orthogonalLoop=1;jettySize=auto;html=1;exitX=1;exitY=0.5;exitDx=0;exitDy=0;entryX=1;entryY=0.5;entryDx=0;entryDy=0;dashed=1;dashPattern=8 8;" parent="1" source="aFVHuyK8Ec4p_bwPnjk1-5" target="qGXmZ7wfK9wXLIBla1jH-52" edge="1">
          <mxGeometry relative="1" as="geometry">
            <Array as="points">
              <mxPoint x="6244" y="2711" />
              <mxPoint x="6244" y="3423" />
              <mxPoint x="5799" y="3423" />
            </Array>
          </mxGeometry>
        </mxCell>
        <mxCell id="aFVHuyK8Ec4p_bwPnjk1-12" value="mem config signals" style="edgeLabel;html=1;align=center;verticalAlign=middle;resizable=0;points=[];" parent="aFVHuyK8Ec4p_bwPnjk1-11" connectable="0" vertex="1">
          <mxGeometry x="0.012" y="2" relative="1" as="geometry">
            <mxPoint as="offset" />
          </mxGeometry>
        </mxCell>
        <mxCell id="aFVHuyK8Ec4p_bwPnjk1-13" value="" style="endArrow=classic;html=1;rounded=0;entryX=1;entryY=0.5;entryDx=0;entryDy=0;dashed=1;dashPattern=12 12;" parent="1" edge="1">
          <mxGeometry width="50" height="50" relative="1" as="geometry">
            <mxPoint x="5991" y="3423" as="sourcePoint" />
            <mxPoint x="5576.639999999999" y="3405.64" as="targetPoint" />
            <Array as="points">
              <mxPoint x="5577" y="3423" />
            </Array>
          </mxGeometry>
        </mxCell>
        <mxCell id="8G2dTnUJbdhdY3QdZzFE-1" value="HP NoC (cluster 2)&lt;br&gt;5x5" style="shape=hexagon;perimeter=hexagonPerimeter2;whiteSpace=wrap;html=1;fixedSize=1;fillColor=#e1d5e7;strokeColor=#9673a6;" parent="1" vertex="1">
          <mxGeometry x="5811" y="2357" width="198.5" height="49" as="geometry" />
        </mxCell>
        <mxCell id="8G2dTnUJbdhdY3QdZzFE-2" value="HP NoC (cluster 1)&lt;br&gt;5x5" style="shape=hexagon;perimeter=hexagonPerimeter2;whiteSpace=wrap;html=1;fixedSize=1;fillColor=#e1d5e7;strokeColor=#9673a6;" parent="1" vertex="1">
          <mxGeometry x="5504" y="2357" width="198.5" height="49" as="geometry" />
        </mxCell>
        <mxCell id="8G2dTnUJbdhdY3QdZzFE-3" value="HP NoC (L2_X)&lt;br&gt;2x1" style="shape=hexagon;perimeter=hexagonPerimeter2;whiteSpace=wrap;html=1;fixedSize=1;fillColor=#e1d5e7;strokeColor=#9673a6;" parent="1" vertex="1">
          <mxGeometry x="5662" y="2500" width="198.5" height="49" as="geometry" />
        </mxCell>
        <mxCell id="8G2dTnUJbdhdY3QdZzFE-4" style="edgeStyle=orthogonalEdgeStyle;rounded=0;orthogonalLoop=1;jettySize=auto;html=1;exitX=0.5;exitY=1;exitDx=0;exitDy=0;entryX=0.297;entryY=0.041;entryDx=0;entryDy=0;entryPerimeter=0;" parent="1" source="8G2dTnUJbdhdY3QdZzFE-2" target="8G2dTnUJbdhdY3QdZzFE-3" edge="1">
          <mxGeometry relative="1" as="geometry" />
        </mxCell>
        <mxCell id="8G2dTnUJbdhdY3QdZzFE-5" style="edgeStyle=orthogonalEdgeStyle;rounded=0;orthogonalLoop=1;jettySize=auto;html=1;exitX=0.5;exitY=1;exitDx=0;exitDy=0;entryX=0.675;entryY=0.061;entryDx=0;entryDy=0;entryPerimeter=0;" parent="1" source="8G2dTnUJbdhdY3QdZzFE-1" target="8G2dTnUJbdhdY3QdZzFE-3" edge="1">
          <mxGeometry relative="1" as="geometry" />
        </mxCell>
        <mxCell id="zeYQc-eqgXKTaU80IlPP-2" value="1 MiB&lt;br&gt;Contiguous SRAM" style="rounded=0;whiteSpace=wrap;html=1;horizontal=0;fillColor=#f5f5f5;strokeColor=#666666;rotation=90;fontColor=#333333;" parent="1" vertex="1">
          <mxGeometry x="5911" y="3135" width="365.28" height="175" as="geometry" />
        </mxCell>
        <mxCell id="zeYQc-eqgXKTaU80IlPP-3" value="MBIST" style="rounded=0;whiteSpace=wrap;html=1;horizontal=0;fillColor=#f5f5f5;strokeColor=#666666;rotation=90;fontColor=#333333;" parent="1" vertex="1">
          <mxGeometry x="6085" y="3279" width="28.7" height="139.41" as="geometry" />
        </mxCell>
        <mxCell id="zeYQc-eqgXKTaU80IlPP-4" value="Memory Repair" style="rounded=0;whiteSpace=wrap;html=1;horizontal=0;fillColor=#f5f5f5;strokeColor=#666666;rotation=90;fontColor=#333333;" parent="1" vertex="1">
          <mxGeometry x="6085" y="3307.71" width="28.7" height="139.37" as="geometry" />
        </mxCell>
        <mxCell id="zeYQc-eqgXKTaU80IlPP-5" value="&lt;font face=&quot;Courier New&quot;&gt;&lt;b&gt;bank15&lt;/b&gt;&lt;/font&gt;" style="text;html=1;strokeColor=none;fillColor=none;align=center;verticalAlign=middle;whiteSpace=wrap;rounded=0;" parent="1" vertex="1">
          <mxGeometry x="6073" y="3435" width="60" height="30" as="geometry" />
        </mxCell>
        <mxCell id="zeYQc-eqgXKTaU80IlPP-9" value="" style="endArrow=classic;html=1;rounded=0;" parent="1" edge="1">
          <mxGeometry width="50" height="50" relative="1" as="geometry">
            <mxPoint x="5785" y="2890" as="sourcePoint" />
            <mxPoint x="5785" y="2939" as="targetPoint" />
          </mxGeometry>
        </mxCell>
        <mxCell id="zeYQc-eqgXKTaU80IlPP-10" value="" style="endArrow=classic;html=1;rounded=0;" parent="1" edge="1">
          <mxGeometry width="50" height="50" relative="1" as="geometry">
            <mxPoint x="5836" y="2850" as="sourcePoint" />
            <mxPoint x="5836" y="2941" as="targetPoint" />
          </mxGeometry>
        </mxCell>
        <mxCell id="zeYQc-eqgXKTaU80IlPP-11" value="&lt;b&gt;.....&lt;/b&gt;" style="text;html=1;strokeColor=none;fillColor=none;align=center;verticalAlign=middle;whiteSpace=wrap;rounded=0;" parent="1" vertex="1">
          <mxGeometry x="5924" y="3227" width="60" height="30" as="geometry" />
        </mxCell>
        <mxCell id="zeYQc-eqgXKTaU80IlPP-13" value="MBIST" style="rounded=0;whiteSpace=wrap;html=1;horizontal=0;fillColor=#f5f5f5;strokeColor=#666666;rotation=90;fontColor=#333333;" parent="1" vertex="1">
          <mxGeometry x="5561.5" y="3278" width="28.7" height="139.41" as="geometry" />
        </mxCell>
        <mxCell id="zeYQc-eqgXKTaU80IlPP-15" value="" style="rounded=0;whiteSpace=wrap;html=1;" parent="1" vertex="1">
          <mxGeometry x="5465" y="2905" width="699" height="102" as="geometry" />
        </mxCell>
        <mxCell id="qGXmZ7wfK9wXLIBla1jH-56" value="RR ARB" style="whiteSpace=wrap;html=1;" parent="1" vertex="1">
          <mxGeometry x="6026" y="2952" width="83" height="50" as="geometry" />
        </mxCell>
        <mxCell id="qGXmZ7wfK9wXLIBla1jH-60" value="RR ARB" style="whiteSpace=wrap;html=1;" parent="1" vertex="1">
          <mxGeometry x="5535.5" y="2944" width="83" height="50" as="geometry" />
        </mxCell>
        <mxCell id="zeYQc-eqgXKTaU80IlPP-8" value="RR ARB" style="whiteSpace=wrap;html=1;" parent="1" vertex="1">
          <mxGeometry x="5766" y="2942" width="83" height="50" as="geometry" />
        </mxCell>
        <mxCell id="qGXmZ7wfK9wXLIBla1jH-58" value="" style="endArrow=classic;html=1;rounded=0;fontColor=#000000;startArrow=classic;startFill=1;exitX=0;exitY=0.5;exitDx=0;exitDy=0;" parent="1" edge="1">
          <mxGeometry width="50" height="50" relative="1" as="geometry">
            <mxPoint x="5573.5" y="3040" as="sourcePoint" />
            <mxPoint x="5573.5" y="2996" as="targetPoint" />
          </mxGeometry>
        </mxCell>
        <mxCell id="qGXmZ7wfK9wXLIBla1jH-78" value="mem_req/rsp" style="edgeLabel;html=1;align=center;verticalAlign=middle;resizable=0;points=[];" parent="qGXmZ7wfK9wXLIBla1jH-58" vertex="1" connectable="0">
          <mxGeometry x="-0.0189" relative="1" as="geometry">
            <mxPoint as="offset" />
          </mxGeometry>
        </mxCell>
        <mxCell id="zeYQc-eqgXKTaU80IlPP-6" value="" style="endArrow=classic;html=1;rounded=0;fontColor=#000000;startArrow=classic;startFill=1;exitX=0;exitY=0.5;exitDx=0;exitDy=0;" parent="1" edge="1">
          <mxGeometry width="50" height="50" relative="1" as="geometry">
            <mxPoint x="5804" y="3038" as="sourcePoint" />
            <mxPoint x="5804" y="2994" as="targetPoint" />
          </mxGeometry>
        </mxCell>
        <mxCell id="zeYQc-eqgXKTaU80IlPP-7" value="mem_req/rsp" style="edgeLabel;html=1;align=center;verticalAlign=middle;resizable=0;points=[];" parent="zeYQc-eqgXKTaU80IlPP-6" connectable="0" vertex="1">
          <mxGeometry x="-0.0189" relative="1" as="geometry">
            <mxPoint as="offset" />
          </mxGeometry>
        </mxCell>
      </root>
    </mxGraphModel>
  </diagram>
</mxfile>
